<mxfile host="app.diagrams.net" modified="2023-07-11T16:42:45.931Z" agent="Mozilla/5.0 (Windows NT 10.0; Win64; x64; rv:109.0) Gecko/20100101 Firefox/114.0" etag="qlONm03h6XvkgsbIzYPZ" version="21.6.1" type="device">
  <diagram name="Page-1" id="Rx9-tQfnJTMb2EWwgZFH">
    <mxGraphModel dx="892" dy="1620" grid="1" gridSize="10" guides="1" tooltips="1" connect="1" arrows="1" fold="1" page="1" pageScale="1" pageWidth="827" pageHeight="1169" background="none" math="0" shadow="0">
      <root>
        <mxCell id="0" />
        <mxCell id="1" parent="0" />
        <mxCell id="i1RyrmgJQguhnBVQmPtN-12" style="edgeStyle=orthogonalEdgeStyle;rounded=0;orthogonalLoop=1;jettySize=auto;html=1;" parent="1" source="i1RyrmgJQguhnBVQmPtN-1" target="i1RyrmgJQguhnBVQmPtN-11" edge="1">
          <mxGeometry relative="1" as="geometry" />
        </mxCell>
        <mxCell id="i1RyrmgJQguhnBVQmPtN-18" style="edgeStyle=orthogonalEdgeStyle;rounded=0;orthogonalLoop=1;jettySize=auto;html=1;exitX=0.5;exitY=1;exitDx=0;exitDy=0;entryX=0.5;entryY=0;entryDx=0;entryDy=0;" parent="1" source="i1RyrmgJQguhnBVQmPtN-1" target="i1RyrmgJQguhnBVQmPtN-14" edge="1">
          <mxGeometry relative="1" as="geometry" />
        </mxCell>
        <mxCell id="i1RyrmgJQguhnBVQmPtN-1" value="&lt;div&gt;&amp;lt; 21&lt;/div&gt;&lt;div&gt;&lt;br&gt;&lt;/div&gt;" style="rhombus;whiteSpace=wrap;html=1;" parent="1" vertex="1">
          <mxGeometry x="325" y="230" width="150" height="130" as="geometry" />
        </mxCell>
        <mxCell id="i1RyrmgJQguhnBVQmPtN-13" style="edgeStyle=orthogonalEdgeStyle;rounded=0;orthogonalLoop=1;jettySize=auto;html=1;exitX=0.5;exitY=1;exitDx=0;exitDy=0;entryX=0.5;entryY=0;entryDx=0;entryDy=0;" parent="1" source="i1RyrmgJQguhnBVQmPtN-2" target="i1RyrmgJQguhnBVQmPtN-1" edge="1">
          <mxGeometry relative="1" as="geometry" />
        </mxCell>
        <mxCell id="i1RyrmgJQguhnBVQmPtN-2" value="&lt;div&gt;Another card&lt;/div&gt;&lt;div&gt;&lt;br&gt;&lt;/div&gt;" style="rounded=0;whiteSpace=wrap;html=1;" parent="1" vertex="1">
          <mxGeometry x="365" y="40" width="120" height="60" as="geometry" />
        </mxCell>
        <mxCell id="i1RyrmgJQguhnBVQmPtN-3" value="" style="endArrow=none;html=1;rounded=0;entryX=1;entryY=0.5;entryDx=0;entryDy=0;exitX=1;exitY=0.5;exitDx=0;exitDy=0;" parent="1" source="i1RyrmgJQguhnBVQmPtN-11" target="i1RyrmgJQguhnBVQmPtN-2" edge="1">
          <mxGeometry width="50" height="50" relative="1" as="geometry">
            <mxPoint x="770" y="400" as="sourcePoint" />
            <mxPoint x="590" y="70" as="targetPoint" />
            <Array as="points">
              <mxPoint x="780" y="295" />
              <mxPoint x="780" y="70" />
              <mxPoint x="590" y="70" />
            </Array>
          </mxGeometry>
        </mxCell>
        <mxCell id="i1RyrmgJQguhnBVQmPtN-10" style="edgeStyle=orthogonalEdgeStyle;rounded=0;orthogonalLoop=1;jettySize=auto;html=1;entryX=0.5;entryY=0;entryDx=0;entryDy=0;" parent="1" source="i1RyrmgJQguhnBVQmPtN-5" target="i1RyrmgJQguhnBVQmPtN-2" edge="1">
          <mxGeometry relative="1" as="geometry" />
        </mxCell>
        <mxCell id="i1RyrmgJQguhnBVQmPtN-5" value="&lt;div&gt;first card&lt;/div&gt;&lt;div&gt;&lt;br&gt;&lt;/div&gt;" style="rounded=0;whiteSpace=wrap;html=1;" parent="1" vertex="1">
          <mxGeometry x="367" y="-90" width="120" height="60" as="geometry" />
        </mxCell>
        <mxCell id="i1RyrmgJQguhnBVQmPtN-11" value="Hit?" style="rhombus;whiteSpace=wrap;html=1;" parent="1" vertex="1">
          <mxGeometry x="520" y="235" width="134" height="120" as="geometry" />
        </mxCell>
        <mxCell id="i1RyrmgJQguhnBVQmPtN-17" style="edgeStyle=orthogonalEdgeStyle;rounded=0;orthogonalLoop=1;jettySize=auto;html=1;exitX=1;exitY=0.5;exitDx=0;exitDy=0;entryX=0;entryY=0.5;entryDx=0;entryDy=0;" parent="1" source="i1RyrmgJQguhnBVQmPtN-14" target="i1RyrmgJQguhnBVQmPtN-16" edge="1">
          <mxGeometry relative="1" as="geometry" />
        </mxCell>
        <mxCell id="i1RyrmgJQguhnBVQmPtN-14" value="21?" style="rhombus;whiteSpace=wrap;html=1;" parent="1" vertex="1">
          <mxGeometry x="325" y="460" width="140" height="140" as="geometry" />
        </mxCell>
        <mxCell id="i1RyrmgJQguhnBVQmPtN-15" value="" style="rhombus;whiteSpace=wrap;html=1;" parent="1" vertex="1">
          <mxGeometry x="30" y="300" width="80" height="80" as="geometry" />
        </mxCell>
        <mxCell id="i1RyrmgJQguhnBVQmPtN-31" style="edgeStyle=orthogonalEdgeStyle;rounded=0;orthogonalLoop=1;jettySize=auto;html=1;entryX=0.5;entryY=0;entryDx=0;entryDy=0;" parent="1" source="i1RyrmgJQguhnBVQmPtN-16" target="i1RyrmgJQguhnBVQmPtN-29" edge="1">
          <mxGeometry relative="1" as="geometry">
            <mxPoint x="230" y="-310" as="targetPoint" />
            <Array as="points">
              <mxPoint x="860" y="740" />
              <mxPoint x="860" y="-390" />
              <mxPoint x="225" y="-390" />
            </Array>
          </mxGeometry>
        </mxCell>
        <mxCell id="i1RyrmgJQguhnBVQmPtN-16" value="&lt;div&gt;Win&lt;/div&gt;" style="rounded=0;whiteSpace=wrap;html=1;" parent="1" vertex="1">
          <mxGeometry x="660" y="710" width="120" height="60" as="geometry" />
        </mxCell>
        <mxCell id="i1RyrmgJQguhnBVQmPtN-21" style="edgeStyle=orthogonalEdgeStyle;rounded=0;orthogonalLoop=1;jettySize=auto;html=1;exitX=1;exitY=0.5;exitDx=0;exitDy=0;entryX=0;entryY=0.5;entryDx=0;entryDy=0;" parent="1" source="i1RyrmgJQguhnBVQmPtN-20" target="i1RyrmgJQguhnBVQmPtN-16" edge="1">
          <mxGeometry relative="1" as="geometry" />
        </mxCell>
        <mxCell id="i1RyrmgJQguhnBVQmPtN-24" style="edgeStyle=orthogonalEdgeStyle;rounded=0;orthogonalLoop=1;jettySize=auto;html=1;" parent="1" source="i1RyrmgJQguhnBVQmPtN-20" target="i1RyrmgJQguhnBVQmPtN-23" edge="1">
          <mxGeometry relative="1" as="geometry" />
        </mxCell>
        <mxCell id="i1RyrmgJQguhnBVQmPtN-20" value="&amp;gt; Dealer?" style="rhombus;whiteSpace=wrap;html=1;" parent="1" vertex="1">
          <mxGeometry x="330" y="690" width="124" height="124" as="geometry" />
        </mxCell>
        <mxCell id="i1RyrmgJQguhnBVQmPtN-22" value="" style="rhombus;whiteSpace=wrap;html=1;" parent="1" vertex="1">
          <mxGeometry x="80" y="610" width="80" height="80" as="geometry" />
        </mxCell>
        <mxCell id="i1RyrmgJQguhnBVQmPtN-27" style="edgeStyle=orthogonalEdgeStyle;rounded=0;orthogonalLoop=1;jettySize=auto;html=1;" parent="1" source="i1RyrmgJQguhnBVQmPtN-23" target="i1RyrmgJQguhnBVQmPtN-26" edge="1">
          <mxGeometry relative="1" as="geometry" />
        </mxCell>
        <mxCell id="i1RyrmgJQguhnBVQmPtN-28" style="edgeStyle=orthogonalEdgeStyle;rounded=0;orthogonalLoop=1;jettySize=auto;html=1;exitX=0.5;exitY=1;exitDx=0;exitDy=0;entryX=0;entryY=0.5;entryDx=0;entryDy=0;" parent="1" source="i1RyrmgJQguhnBVQmPtN-23" target="i1RyrmgJQguhnBVQmPtN-25" edge="1">
          <mxGeometry relative="1" as="geometry" />
        </mxCell>
        <mxCell id="i1RyrmgJQguhnBVQmPtN-23" value="&lt;div&gt;= Dealer&lt;/div&gt;" style="rhombus;whiteSpace=wrap;html=1;" parent="1" vertex="1">
          <mxGeometry x="327" y="850" width="130" height="130" as="geometry" />
        </mxCell>
        <mxCell id="i1RyrmgJQguhnBVQmPtN-36" style="edgeStyle=orthogonalEdgeStyle;rounded=0;orthogonalLoop=1;jettySize=auto;html=1;" parent="1" source="i1RyrmgJQguhnBVQmPtN-25" edge="1">
          <mxGeometry relative="1" as="geometry">
            <mxPoint x="860" y="920" as="targetPoint" />
          </mxGeometry>
        </mxCell>
        <mxCell id="i1RyrmgJQguhnBVQmPtN-25" value="Lose" style="rounded=0;whiteSpace=wrap;html=1;" parent="1" vertex="1">
          <mxGeometry x="654" y="1030" width="120" height="60" as="geometry" />
        </mxCell>
        <mxCell id="i1RyrmgJQguhnBVQmPtN-35" style="edgeStyle=orthogonalEdgeStyle;rounded=0;orthogonalLoop=1;jettySize=auto;html=1;" parent="1" source="i1RyrmgJQguhnBVQmPtN-26" edge="1">
          <mxGeometry relative="1" as="geometry">
            <mxPoint x="860" y="740" as="targetPoint" />
          </mxGeometry>
        </mxCell>
        <mxCell id="i1RyrmgJQguhnBVQmPtN-26" value="&lt;div&gt;Draw&lt;/div&gt;" style="rounded=0;whiteSpace=wrap;html=1;" parent="1" vertex="1">
          <mxGeometry x="660" y="885" width="120" height="60" as="geometry" />
        </mxCell>
        <mxCell id="i1RyrmgJQguhnBVQmPtN-30" style="edgeStyle=orthogonalEdgeStyle;rounded=0;orthogonalLoop=1;jettySize=auto;html=1;" parent="1" source="i1RyrmgJQguhnBVQmPtN-29" target="i1RyrmgJQguhnBVQmPtN-5" edge="1">
          <mxGeometry relative="1" as="geometry" />
        </mxCell>
        <mxCell id="i1RyrmgJQguhnBVQmPtN-38" style="edgeStyle=orthogonalEdgeStyle;rounded=0;orthogonalLoop=1;jettySize=auto;html=1;exitX=0.5;exitY=1;exitDx=0;exitDy=0;entryX=0.5;entryY=0;entryDx=0;entryDy=0;" parent="1" source="i1RyrmgJQguhnBVQmPtN-29" target="i1RyrmgJQguhnBVQmPtN-37" edge="1">
          <mxGeometry relative="1" as="geometry" />
        </mxCell>
        <mxCell id="i1RyrmgJQguhnBVQmPtN-29" value="Play a game?" style="rhombus;whiteSpace=wrap;html=1;" parent="1" vertex="1">
          <mxGeometry x="140" y="-290" width="170" height="170" as="geometry" />
        </mxCell>
        <mxCell id="i1RyrmgJQguhnBVQmPtN-34" style="edgeStyle=orthogonalEdgeStyle;rounded=0;orthogonalLoop=1;jettySize=auto;html=1;" parent="1" source="i1RyrmgJQguhnBVQmPtN-33" edge="1">
          <mxGeometry relative="1" as="geometry">
            <mxPoint x="230" y="-390" as="targetPoint" />
          </mxGeometry>
        </mxCell>
        <mxCell id="i1RyrmgJQguhnBVQmPtN-33" value="&lt;div&gt;Start. Logo&lt;/div&gt;&lt;div&gt;etc&lt;/div&gt;&lt;div&gt;&lt;br&gt;&lt;/div&gt;" style="rounded=0;whiteSpace=wrap;html=1;" parent="1" vertex="1">
          <mxGeometry x="170" y="-612" width="120" height="56" as="geometry" />
        </mxCell>
        <mxCell id="i1RyrmgJQguhnBVQmPtN-37" value="&lt;div&gt;Finish&lt;/div&gt;&lt;div&gt;&lt;br&gt;&lt;/div&gt;" style="rounded=0;whiteSpace=wrap;html=1;" parent="1" vertex="1">
          <mxGeometry x="165" y="-60" width="120" height="50" as="geometry" />
        </mxCell>
      </root>
    </mxGraphModel>
  </diagram>
</mxfile>
